# xmcd
#
# Track frame offsets:
#        150
#        24030
#        41320
#        66182
#        80502
#        104152
#        131500
#        153797
#        172467
#        203557
#        223710
#
# Disc length: 3302 seconds
#
# Revision: 0
# Processed by: cddbd v1.5.1PL0 Copyright (c) Steve Scherf et al.
# Submitted via: ExactAudioCopy v0.95a5
#
DISCID=920ce40b
DTITLE=Jimi Tenor - Organism
DYEAR=1900
DGENRE=
TTITLE0=Total Devastation
TTITLE1=Serious Love
TTITLE2=My Mind
TTITLE3=Love and Work
TTITLE4=Love and Work
TTITLE5=Xinotepe Heat
TTITLE6=Muchmo
TTITLE7=Beach Boy
TTITLE8=Year of the Apocalypse
TTITLE9=City Sleeps
TTITLE10=Total Devistation [Maurice Club Mix]
EXTD=
EXTT0=
EXTT1=
EXTT2=
EXTT3=
EXTT4=
EXTT5=
EXTT6=
EXTT7=
EXTT8=
EXTT9=
EXTT10=
PLAYORDER=
